<svg xmlns="http://www.w3.org/2000/svg" width="32" height="32" viewBox="0 0 118.8 72.1">
  <path fill-rule="evenodd" stroke="#000" stroke-linecap="round" stroke-width=".945" d="M47.5 59.7 44.2 49 13.7 60.9a93.724 93.724 0 0 1 5.667-24.969A41.264 41.264 0 0 1 46.1 9.8l-7.3 24.9 11.2 3 9.4-27.6C55.596 6.473 49.992 3.316 44.389.905A83.048 83.048 0 0 0 42.2 0 48.29 48.29 0 0 0 6.786 31.106 91.24 91.24 0 0 0 0 65l17.1 7.1 30.4-12.4ZM80.6 72l38.2-63.5L108.6 0 74.1 60.7 82 5.5 68.9.3l-7.9 65L80.6 72Z" font-size="12" style="stroke:#000;stroke-width:.25mm;fill:#000" vector-effect="non-scaling-stroke"/>
</svg>